<svg xmlns="http://www.w3.org/2000/svg" version="1.1" xmlns:xlink="http://www.w3.org/1999/xlink" xmlns:svgjs="http://svgjs.dev/svgjs" width="2000" height="1500" viewBox="0 0 2000 1500"><rect width="2000" height="1500" fill="#000000"></rect><g transform="matrix(0.4444444444444444,0,0,0.4444444444444444,555.5555625,250)"><svg viewBox="0 0 320 360" data-background-color="#0f6b42" preserveAspectRatio="xMidYMid meet" height="2250" width="2000" xmlns="http://www.w3.org/2000/svg" xmlns:xlink="http://www.w3.org/1999/xlink"><g id="tight-bounds" transform="matrix(1,0,0,1,0.0000025000000505315256,0)"><svg viewBox="0 0 320 360" height="360" width="320"><g><svg></svg></g><g><svg viewBox="0 0 320 360" height="360" width="320"><g><path transform="translate(-19.44751,3.1739) scale(3.53591,3.53591)" d="M67.6 10.7c0.2 0 1.8 0.8 2.7 1.1-0.3 0.1-1-0.2-1.8-0.5 0.2 0 0.6 0.1 1 0.3-0.2-0.2-1.7-0.7-1.9-0.9M52.7 7.6c0.3-0.1 3.8 0.4 5.4 0.5 0.1-0.1-0.2-0.1-0.6-0.2 0.5-0.1 1.5 0.2 2.2 0.3-2.1 0.1-4.4-0.5-6.4-0.3-0.7 0-0.2-0.2-0.6-0.3M49.8 7.6c1.8 0 3.2 0 0.6 0.2-0.3-0.1-0.7-0.1-0.6-0.2M78.1 15.9c0.2 0 1 0.9 1.4 1.2-0.1 0.1-0.9-0.7-1.3-1 0.1 0.1 0 0-0.1-0.2M76.1 14.6c-0.8-0.7-1.1-0.7-1.2-1.1 0.7 0.4 1.2 0.8 1.2 1.1M63.2 8.3c0.1-0.1 0.3 0.1 0.8 0.2-0.6-0.1-0.5 0-0.3 0.2-0.7-0.1-0.9-0.2-0.7-0.4 0.4 0.2 0.5 0.1 0.2 0M34.8 9.5c0-0.1 0.4-0.3 0.7-0.4-0.3 0.2-0.2 0.3 0.3 0.1 0 0.1-0.6 0.3-1 0.5 0.2-0.1 0.4-0.4 0-0.2M65.2 7.3c-0.3 0.1-1.4-0.5-2.5-0.7-0.6-0.2 2.4 0.5 2.5 0.7M6.2 56.7c0.6 2.5 0.2 2.4 0 0M6.3 41.7c0.1-0.4 0.2-1.5 0.3-1.4-0.3 2.4-0.8 3.5-0.9 5.3 0.3-1.6-0.1 0.9-0.2 1.5 0.1 0.8 0.1-0.5 0.3-0.3 0.2 0.3-0.4 4.5-0.2 2.2-0.2 2.1 0 4.4 0.4 5-0.5 3.2 2 10.4 2.5 11.9 0.1 0.1 0-0.5 0.2-0.1 0.2 1.3 1.1 2.2 1.4 3.6 0.3 0.4 1.5 2.6 1.7 3.1 0.4 0.8 0.6 0.7 1 1.5 1.2 2.3 3.1 4.5 4.9 6.6 5.8 6.8 14.7 12.4 24.6 14.4 9.9 2.1 20.3 0.6 28.4-3.3 0.5-0.3 0.4-0.4 1-0.6 2.8-0.9 6.2-3.8 8.1-4.9 0.9-1 3.3-2.7 3.6-3.7 1.7-1.4 3.4-3.7 4.3-5.2 0.5-0.8 0.9-0.8 1.1-1.3-0.1 0 1.6-2.1 2.1-3.3-0.2 0-0.5 0.6-0.5 0 3.6-6.9 5.6-16.2 4.5-22.6 0.2 7.9-1.8 16.7-5.6 22.3-1.7 3.6-5.2 7.5-8.4 10.3-0.5 0.5-1 1.1-1.6 1.5-1.9 1.6-4 2.9-6.2 4.1-5.2 2.9-11 5.4-17.8 5.5 11.7-1 22.2-6.9 28-14.1-4.4 4.3-6.3 6-11.2 8.5-0.4 0.7-3.7 2.1-5.9 2.7 1.3-0.6 4-1.6 4.9-2.4-7.3 3.5-15.4 5.5-23 4.4 2.9 0 7 0.1 10.9-0.6 0.6-0.2 0.9-0.4 1.6-0.5 7.6-1.7 14.9-5.4 20.1-10.6-3 2.7-7.5 5.9-10.4 6.9 2.7-1.5 7.6-4.4 9.2-6.6-3.2 3.2-9.2 6.4-13 7.8-0.6 0.1 0.4-0.4-0.6 0-1.2 0.3-0.7 0.3-1 0.5-4.6 1.3-9.9 2.4-14.3 2-0.8-0.1-1.1-0.3-1.8-0.3-0.8-0.1-1.5-0.1-2.4-0.1-3.5-0.4-7.3-1.8-10.1-3-1.5-0.7-3-1.2-4.5-2.1-1.2-0.7-2.2-1.5-3.2-2.3-3.8-2.8-7-5.6-10-9.6-5.4-7.5-8.2-16.9-7.8-26.2 0.4-9.3 4.1-18.4 10-25.1-0.3 0.3 0.4-0.7 1-1.3 0 0.2-0.1 0.5 0.6-0.2 0.6-0.7-0.2-0.2 0.1-0.6 6.2-6.8 17-12.3 28.1-12.5 0.4-0.3 1.1-0.7 1.9-0.5 0 0.1-0.5 0.1-0.5 0.1 1.1-0.1 2.1-0.1 2.6 0.1 0.1-0.1-0.4-0.2 0-0.2 0.7 0.2 0.9 0 1.3 0.2-0.3 0-0.6 0-0.8 0.1 2.5 0 4.1 0.6 6.6 0.8-1.3-0.3-1.6-0.3-2.6-0.6 1.1 0.2 1.6 0.4 2.1 0.3-0.2 0-0.1-0.3 0.1-0.2 2 0.5 2.2 0.7 4.3 1.4 0.2-0.2-0.9-0.3-1.2-0.6 2 0.7 3.8 1.2 5 2-0.4-0.3-1.6-0.7-2.5-1.1-0.1 0.1 0.3 0.2 0.4 0.4-1-0.5-2.4-1-3.8-1.2 1.2 0.3 2 0.7 2.5 0.9-1.1-0.2-2.5-0.9-4.1-1.2 2.6 0.8 7.5 2.6 10.5 4.2-1.1-0.7-2.4-1.2-3.1-1.6 0.6 0.1 1.3 0.5 1.3 0.3 0.7 0.3 1.6 1 2.1 1.1-0.9-0.6-2.7-1.5-3.3-1.8 7.5 3.4 14.2 9.1 18.5 16.4 0.4 0.7 1 2.3 1.5 2.5-0.1-0.5-0.5-0.8-0.9-1.6 0.2 0 0.2-0.3 0-0.6-0.4-0.5 0 0.4-0.4-0.1-1.8-3.3-4-6.2-7.4-9.4 1.9 1.8 0.5 0.5 0.1-0.1 2.6 2.3 5.6 6.2 6.9 8.2-0.2-0.3-0.3-0.5-0.2-0.5 2.4 4.1 3.9 7.8 5.4 13.1 0.1 0.1 0-0.4 0.2-0.1 1 4.2 1.3 7.7 1.2 10.9 0.8-5.4-1-13.8-4.2-20.4-0.4-0.8-0.4-0.2-0.8-1.1 0-0.3-0.3-0.9-0.5-1.3-4-6.6-8.9-11.3-14.7-15 0.4 0.2 1.2 0.8 1.2 0.7-10.8-7.1-23.3-8.1-33.6-5.9-0.7 0.3-1 0.6-1.8 1 1.5-0.5 2.4-0.6 3.8-0.9 0.3-0.3-1.3 0.1-0.6-0.2 0.1 0.1 1.4-0.2 1.7-0.1 0 0.1-0.4 0.2-0.5 0.3 3.3-0.7 6.7-0.8 9.6-0.6-1.7 0.1-4.8-0.2-5.8 0.3 1-0.1 2.4-0.2 3.3-0.1-1.2 0-3.4 0.1-4.4 0.2-0.1-0.1 1.6-0.3 0.5-0.3-0.5 0.1-1.3 0.1-1.6 0.4-8.6 0.8-17 5.3-22.9 10.6-1.2 1-2.6 2.1-3.5 3.2-2.2 2.5-3.6 5-5.2 7.2 1-2.1 3.2-5.3 5.8-8 2.6-2.7 5.4-5 6.9-6.2 0 0.4 2.4-1.5 3.3-2.1-0.6 0.5 0.4-0.2 0.6-0.1 3.2-1.9 5.8-2.6 8.7-3.7-0.7 0.2-1.3 0.4-1.4 0.3 0.7-0.2 1.1-0.4 1-0.5-2.8 0.8-7.2 2.7-10.7 4.8 6.3-4.3 14.3-6.9 22.2-7 7.9-0.2 15.6 1.8 21.7 5 4.1 1.8 8 5.1 11.1 8.3 0.9 0.8 0.2-0.2 1.5 1.2-0.4-0.2-0.7-0.4-0.2 0.2 0.8 0.9-0.2-0.7 1.1 0.9-0.1 0-0.5-0.5-0.5-0.3 3.5 3.1 6.2 8.7 7.8 12.4-0.4-1.5-1.4-3.6-2.2-5.1 2.4 4.4 3.2 7 4.2 10.9 0.4 0.3-0.2-1.4 0.2-0.6 0.1 0.6 0.2 2.5 0.6 2.8-0.3-1.9-0.8-4.2-1.2-4.6 0.3 0.2-0.5-2.3-1-2.9-0.2-1.6-1.6-4.4-2.8-6.5-4.3-8.4-12-15.3-20.6-19.1 0-0.2-0.5-0.4-0.7-0.6-8.5-3.6-18.7-4.6-28.5-2.3-9.9 2.4-19.2 8.1-25.8 16.3 0.3-1 2.8-2.9 2.9-3.7-2.9 3.1-6 7.2-8.1 11.6-2.2 4.4-3.4 8.9-3.9 12.2" fill="#ffffff" fill-rule="nonzero" stroke="none" stroke-width="1" stroke-linecap="butt" stroke-linejoin="miter" stroke-miterlimit="10" stroke-dasharray="" stroke-dashoffset="0" font-family="none" font-weight="none" font-size="none" text-anchor="none" style="mix-blend-mode: normal" data-fill-palette-color="tertiary"></path></g><g transform="matrix(1,0,0,1,48,106.17295519472975)"><svg viewBox="0 0 224 147.6540896105405" height="147.6540896105405" width="224"><g><svg viewBox="0 0 224 147.6540896105405" height="147.6540896105405" width="224"><g transform="matrix(1,0,0,1,0,91.19040721804512)"><svg viewBox="0 0 224 56.463682392495386" height="56.463682392495386" width="224"><g id="textblocktransform"><svg viewBox="0 0 224 56.463682392495386" height="56.463682392495386" width="224" id="textblock"><g><svg viewBox="0 0 224 34.88721804511278" height="34.88721804511278" width="224"><g transform="matrix(1,0,0,1,0,0)"><svg width="224" viewBox="4 -35.6 232.73 36.25" height="34.88721804511278" data-palette-color="#d0d823"><path d="M11.45-35.35Q18.8-35.35 22.38-32.88 25.95-30.4 25.95-25.1L25.95-25.1Q25.95-19.5 22.08-16.63 18.2-13.75 10.6-13.75L10.6-13.75 9.3-13.75 9.3-5.8Q9.3-4.5 9.45-2.98 9.6-1.45 10-0.45L10-0.45Q9.6-0.05 8.9 0.28 8.2 0.6 7.35 0.6L7.35 0.6Q6.15 0.6 5.43-0.08 4.7-0.75 4.7-1.9L4.7-1.9 4.7-28.6Q4.7-29.75 4.53-31.43 4.35-33.1 4-34.2L4-34.2Q6.4-35.35 11.45-35.35L11.45-35.35ZM10.65-15.65Q16-15.65 18.48-17.98 20.95-20.3 20.95-24.8L20.95-24.8Q20.95-29.1 18.68-31.25 16.4-33.4 11.35-33.4L11.35-33.4Q9.75-33.4 9.3-33.3L9.3-33.3 9.3-15.65 10.65-15.65ZM41.95 0.65Q36.45 0.65 33.37-2.88 30.3-6.4 30.3-12.7L30.3-12.7Q30.3-19.05 33.37-22.6 36.45-26.15 41.95-26.15L41.95-26.15Q47.45-26.15 50.5-22.6 53.55-19.05 53.55-12.7L53.55-12.7Q53.55-6.4 50.5-2.88 47.45 0.65 41.95 0.65L41.95 0.65ZM41.95-1.25Q45.25-1.25 46.97-4.2 48.7-7.15 48.7-12.7L48.7-12.7Q48.7-18.35 46.97-21.3 45.25-24.25 41.95-24.25L41.95-24.25Q38.6-24.25 36.87-21.3 35.15-18.35 35.15-12.7L35.15-12.7Q35.15-7.15 36.87-4.2 38.6-1.25 41.95-1.25L41.95-1.25ZM62.15-29.75Q60.9-29.75 60.05-30.6 59.2-31.45 59.2-32.65L59.2-32.65Q59.2-33.9 60.05-34.75 60.9-35.6 62.15-35.6L62.15-35.6Q63.35-35.6 64.2-34.75 65.05-33.9 65.05-32.65L65.05-32.65Q65.05-31.45 64.2-30.6 63.35-29.75 62.15-29.75L62.15-29.75ZM64.6-6Q64.6-2.3 65.3-0.45L65.3-0.45Q64.25 0.6 62.7 0.6L62.7 0.6Q61.6 0.6 60.87-0.08 60.15-0.75 60.15-1.9L60.15-1.9 60.1-19.55Q60.1-23.3 59.4-25.15L59.4-25.15Q60.7-26.15 62-26.15L62-26.15Q63.15-26.15 63.85-25.5 64.55-24.85 64.55-23.7L64.55-23.7 64.6-6ZM93.94-6Q94.04-2.15 94.69-0.45L94.69-0.45Q93.54 0.6 92.09 0.6L92.09 0.6Q90.94 0.6 90.19-0.08 89.44-0.75 89.44-1.9L89.44-1.9 89.44-15.2Q89.39-19.5 88.29-21.55 87.19-23.6 84.54-23.6L84.54-23.6Q82.84-23.6 81.32-22.38 79.79-21.15 78.82-18.55 77.84-15.95 77.84-12L77.84-12Q77.84-5.75 77.94-3.8 78.04-1.85 78.59-0.4L78.59-0.4Q78.19 0 77.52 0.3 76.84 0.6 75.99 0.6L75.99 0.6Q74.79 0.6 74.07-0.13 73.34-0.85 73.34-2.1L73.34-2.1 73.34-20.05Q73.29-21.45 72.97-22.03 72.64-22.6 71.94-22.6L71.94-22.6Q70.99-22.6 70.64-21.9L70.64-21.9Q70.04-22.75 70.04-23.55L70.04-23.55Q70.04-24.7 70.89-25.4 71.74-26.1 73.24-26.1L73.24-26.1Q75.24-26.1 76.32-24.73 77.39-23.35 77.39-20.7L77.39-20.7 77.39-20.1Q78.44-23 80.64-24.58 82.84-26.15 85.89-26.15L85.89-26.15Q93.94-26.15 93.94-15.8L93.94-15.8 93.94-6ZM108.49-25.45Q109.34-25.45 110.79-25.5 112.24-25.55 113.09-25.6L113.09-25.6 113.04-24.4Q112.99-23.8 112.64-23.48 112.29-23.15 111.79-23.15L111.79-23.15 106.84-23.15 106.84-21.35 106.79-5.65Q106.79-2.95 109.19-2.95L109.19-2.95Q109.89-2.95 110.57-3.2 111.24-3.45 111.44-3.9L111.44-3.9Q112.04-3.1 112.04-2.2L112.04-2.2Q112.04-0.95 110.79-0.2 109.54 0.55 107.54 0.55L107.54 0.55Q105.09 0.55 103.69-1 102.29-2.55 102.29-5.3L102.29-5.3 102.29-23.15 101.54-23.15Q99.54-23.15 98.54-23L98.54-23 98.59-24.25Q98.64-24.85 98.99-25.15 99.34-25.45 99.89-25.45L99.89-25.45 102.29-25.45 102.29-29.65Q102.29-30.8 103.02-31.45 103.74-32.1 104.94-32.1L104.94-32.1Q106.34-32.1 107.49-31.1L107.49-31.1Q106.94-29.2 106.89-25.45L106.89-25.45 108.49-25.45ZM141.44-3.95Q141.99-3.15 141.99-2.25L141.99-2.25Q141.99-1.1 140.91-0.3 139.84 0.5 138.29 0.5L138.29 0.5Q135.99 0.5 134.84-1.1 133.69-2.7 133.69-6.1L133.69-6.1 133.69-6.9Q132.14-3.5 129.39-1.48 126.64 0.55 123.24 0.55L123.24 0.55Q120.34 0.55 118.64-1.03 116.94-2.6 116.94-5.25L116.94-5.25Q116.94-8.25 119.24-10.33 121.54-12.4 125.29-13.45L125.29-13.45Q129.29-14.5 133.44-14.35L133.44-14.35 133.44-15.6Q133.44-20.05 132.06-22.15 130.69-24.25 127.49-24.25L127.49-24.25Q125.44-24.25 124.04-23.3 122.64-22.35 122.64-20.25L122.64-20.25Q122.64-19.15 123.16-18.13 123.69-17.1 124.74-16.7L124.74-16.7Q123.84-15.65 122.09-15.65L122.09-15.65Q120.29-15.65 119.19-16.98 118.09-18.3 118.09-20.1L118.09-20.1Q118.09-23 120.71-24.58 123.34-26.15 127.89-26.15L127.89-26.15Q133.14-26.15 135.61-23.55 138.09-20.95 138.09-15.35L138.09-15.35 138.09-5.65Q138.09-3 139.84-3L139.84-3Q140.24-3 140.69-3.25 141.14-3.5 141.44-3.95L141.44-3.95ZM125.19-2.55Q127.04-2.55 128.99-3.98 130.94-5.4 132.24-7.73 133.54-10.05 133.59-12.65L133.59-12.65Q131.74-12.75 129.69-12.48 127.64-12.2 126.24-11.6L126.24-11.6Q124.14-10.8 123.01-9.45 121.89-8.1 121.89-6.25L121.89-6.25Q121.89-4.65 122.69-3.6 123.49-2.55 125.19-2.55L125.19-2.55ZM165.39-34.7Q166.19-34.7 166.19-33.4L166.19-33.4Q166.19-32.6 165.81-31.78 165.44-30.95 164.89-30.7L164.89-30.7Q158.39-32.1 151.64-32.25L151.64-32.25 151.69-19.3 163.59-19.3Q163.74-18.65 163.74-17.95L163.74-17.95Q163.74-17.25 163.59-16.65L163.59-16.65 151.69-16.65 151.74-6Q151.74-2.3 152.44-0.45L152.44-0.45Q151.24 0.6 149.79 0.6L149.79 0.6Q148.59 0.6 147.86-0.08 147.14-0.75 147.14-1.9L147.14-1.9 147.14-28.1Q147.14-31.45 146.44-33.5L146.44-33.5Q147.19-34.2 148.04-34.45 148.89-34.7 150.39-34.7L150.39-34.7 165.39-34.7ZM195.13-3.95Q195.68-3.15 195.68-2.25L195.68-2.25Q195.68-1.1 194.61-0.3 193.53 0.5 191.98 0.5L191.98 0.5Q189.68 0.5 188.53-1.1 187.38-2.7 187.38-6.1L187.38-6.1 187.38-6.9Q185.83-3.5 183.08-1.48 180.33 0.55 176.93 0.55L176.93 0.55Q174.03 0.55 172.33-1.03 170.63-2.6 170.63-5.25L170.63-5.25Q170.63-8.25 172.93-10.33 175.23-12.4 178.98-13.45L178.98-13.45Q182.98-14.5 187.13-14.35L187.13-14.35 187.13-15.6Q187.13-20.05 185.76-22.15 184.38-24.25 181.18-24.25L181.18-24.25Q179.13-24.25 177.73-23.3 176.33-22.35 176.33-20.25L176.33-20.25Q176.33-19.15 176.86-18.13 177.38-17.1 178.43-16.7L178.43-16.7Q177.53-15.65 175.78-15.65L175.78-15.65Q173.98-15.65 172.88-16.98 171.78-18.3 171.78-20.1L171.78-20.1Q171.78-23 174.41-24.58 177.03-26.15 181.58-26.15L181.58-26.15Q186.83-26.15 189.31-23.55 191.78-20.95 191.78-15.35L191.78-15.35 191.78-5.65Q191.78-3 193.53-3L193.53-3Q193.93-3 194.38-3.25 194.83-3.5 195.13-3.95L195.13-3.95ZM178.88-2.55Q180.73-2.55 182.68-3.98 184.63-5.4 185.93-7.73 187.23-10.05 187.28-12.65L187.28-12.65Q185.43-12.75 183.38-12.48 181.33-12.2 179.93-11.6L179.93-11.6Q177.83-10.8 176.71-9.45 175.58-8.1 175.58-6.25L175.58-6.25Q175.58-4.65 176.38-3.6 177.18-2.55 178.88-2.55L178.88-2.55ZM236.03-6Q236.03-2.5 236.73-0.45L236.73-0.45Q235.58 0.6 234.13 0.6L234.13 0.6Q232.98 0.6 232.26-0.08 231.53-0.75 231.53-1.9L231.53-1.9 231.53-15.2Q231.53-19.4 230.58-21.58 229.63-23.75 227.08-23.75L227.08-23.75Q225.53-23.75 224.11-22.55 222.68-21.35 221.73-18.85 220.78-16.35 220.73-12.55L220.73-12.55 220.73-6Q220.73-2.5 221.43-0.45L221.43-0.45Q220.28 0.6 218.88 0.6L218.88 0.6Q217.78 0.6 217.08-0.08 216.38-0.75 216.38-1.9L216.38-1.9 216.33-15.2Q216.33-19.6 215.33-21.68 214.33-23.75 211.73-23.75L211.73-23.75Q210.13-23.75 208.73-22.5 207.33-21.25 206.46-18.55 205.58-15.85 205.58-11.75L205.58-11.75Q205.58-5.65 205.68-3.75 205.78-1.85 206.33-0.4L206.33-0.4Q205.33 0.6 203.73 0.6L203.73 0.6Q202.58 0.6 201.86-0.13 201.13-0.85 201.13-2.1L201.13-2.1 201.08-19.95Q201.08-21.25 200.66-21.93 200.23-22.6 199.43-22.6L199.43-22.6Q198.93-22.6 198.51-22.35 198.08-22.1 197.88-21.65L197.88-21.65Q197.33-22.4 197.33-23.3L197.33-23.3Q197.33-24.55 198.26-25.33 199.18-26.1 200.63-26.1L200.63-26.1Q202.73-26.1 203.91-24.6 205.08-23.1 205.08-20.25L205.08-20.25 205.08-19.75Q206.08-22.75 208.16-24.45 210.23-26.15 213.13-26.15L213.13-26.15Q219.08-26.15 220.33-19.9L220.33-19.9Q221.28-22.85 223.41-24.5 225.53-26.15 228.43-26.15L228.43-26.15Q236.03-26.15 236.03-15.8L236.03-15.8 236.03-6Z" opacity="1" transform="matrix(1,0,0,1,0,0)" fill="#ffffff" class="wordmark-text-0" data-fill-palette-color="primary" id="text-0"></path></svg></g></svg></g><g transform="matrix(1,0,0,1,43.68000000000001,43.12325293233083)"><svg viewBox="0 0 136.64 13.34042946016456" height="13.34042946016456" width="136.64"><g transform="matrix(1,0,0,1,0,0)"><svg width="136.64" viewBox="0.55 -37.1 498.25 48.650000000000006" height="13.34042946016456" data-palette-color="#d0d823"><path d="M27.05-33.1Q27.05-32.55 26.75-31.75 26.45-30.95 25.95-30.2L25.95-30.2 16.3-12.55 16.35-6Q16.35-2.3 17.05-0.45L17.05-0.45Q16.65-0.05 15.98 0.28 15.3 0.6 14.45 0.6L14.45 0.6Q13.25 0.6 12.53-0.08 11.8-0.75 11.8-1.9L11.8-1.9 11.8-12.6Q11.7-12.75 11.15-13.7L11.15-13.7 2.45-31.2Q1.75-32.6 0.55-33.8L0.55-33.8Q1.05-34.3 1.93-34.75 2.8-35.2 3.85-35.2L3.85-35.2Q5.05-35.2 5.73-34.6 6.4-34 7-32.75L7-32.75 14.85-15.8 22.2-31.55Q22.75-32.7 22.75-33.4L22.75-33.4Q22.75-34.3 22.3-34.8L22.3-34.8Q23.4-35.2 24.85-35.2L24.85-35.2Q25.9-35.2 26.48-34.6 27.05-34 27.05-33.1L27.05-33.1ZM41.8 0.65Q36.3 0.65 33.22-2.88 30.15-6.4 30.15-12.7L30.15-12.7Q30.15-19.05 33.22-22.6 36.3-26.15 41.8-26.15L41.8-26.15Q47.3-26.15 50.35-22.6 53.4-19.05 53.4-12.7L53.4-12.7Q53.4-6.4 50.35-2.88 47.3 0.65 41.8 0.65L41.8 0.65ZM41.8-1.25Q45.1-1.25 46.82-4.2 48.55-7.15 48.55-12.7L48.55-12.7Q48.55-18.35 46.82-21.3 45.1-24.25 41.8-24.25L41.8-24.25Q38.45-24.25 36.72-21.3 35-18.35 35-12.7L35-12.7Q35-7.15 36.72-4.2 38.45-1.25 41.8-1.25L41.8-1.25ZM82.3-3.65Q82.84-2.9 82.84-2L82.84-2Q82.84-0.85 82.02-0.18 81.2 0.5 79.7 0.5L79.7 0.5Q77.7 0.5 76.62-0.85 75.55-2.2 75.55-4.85L75.55-4.85 75.55-5.5Q74.55-2.55 72.37-0.93 70.2 0.7 67.2 0.7L67.2 0.7Q63.09 0.7 61.22-1.7 59.34-4.1 59.34-9.75L59.34-9.75 59.34-19.55Q59.34-23.05 58.65-25.1L58.65-25.1Q59.9-26.15 61.25-26.15L61.25-26.15Q62.4-26.15 63.12-25.48 63.84-24.8 63.84-23.65L63.84-23.65 63.84-10.35Q63.84-5.65 64.89-3.68 65.95-1.7 68.55-1.7L68.55-1.7Q70.25-1.7 71.72-2.95 73.2-4.2 74.15-6.85 75.09-9.5 75.09-13.55L75.09-13.55Q75.09-19.8 75-21.73 74.9-23.65 74.34-25.15L74.34-25.15Q75.5-26.15 76.95-26.15L76.95-26.15Q78.05-26.15 78.8-25.43 79.55-24.7 79.55-23.45L79.55-23.45 79.59-5.5Q79.59-4.1 79.92-3.53 80.25-2.95 80.95-2.95L80.95-2.95Q81.9-2.95 82.3-3.65L82.3-3.65ZM99.19-26.15Q101.79-26.15 103.42-24.73 105.04-23.3 105.04-20.85L105.04-20.85Q105.04-19.1 104.04-18 103.04-16.9 101.64-16.9L101.64-16.9Q100.39-16.9 99.84-17.55L99.84-17.55Q100.39-18.4 100.59-19.1 100.79-19.8 100.79-20.75L100.79-20.75Q100.79-23.75 98.04-23.75L98.04-23.75Q95.89-23.75 94.47-20.85 93.04-17.95 93.04-12L93.04-12Q93.04-5.85 93.14-3.93 93.24-2 93.79-0.55L93.79-0.55Q93.39-0.15 92.72 0.15 92.04 0.45 91.14 0.5L91.14 0.5Q90.04 0.5 89.29-0.23 88.54-0.95 88.54-2.2L88.54-2.2 88.54-20.05Q88.54-21.4 88.22-22 87.89-22.6 87.14-22.6L87.14-22.6Q86.19-22.6 85.84-21.9L85.84-21.9Q85.24-22.75 85.24-23.55L85.24-23.55Q85.24-24.7 86.09-25.4 86.94-26.1 88.44-26.1L88.44-26.1Q90.44-26.1 91.52-24.68 92.59-23.25 92.54-20.5L92.54-20.5Q93.39-23.25 95.09-24.7 96.79-26.15 99.19-26.15L99.19-26.15ZM130.69-37.1Q133.84-37.1 135.69-35.95 137.54-34.8 137.54-32.75L137.54-32.75Q137.54-31.3 136.61-30.4 135.69-29.5 134.44-29.5L134.44-29.5Q133.09-29.5 132.59-30.15L132.59-30.15Q133.49-31.35 133.49-32.75L133.49-32.75Q133.49-35.3 130.59-35.3L130.59-35.3Q128.04-35.3 127.31-33.1 126.59-30.9 126.59-26.8L126.59-26.8 126.59-25.45 129.24-25.45Q130.04-25.45 131.41-25.5 132.79-25.55 133.59-25.6L133.59-25.6 133.54-24.4Q133.49-23.8 133.16-23.48 132.84-23.15 132.34-23.15L132.34-23.15 126.59-23.15 126.59-6Q126.59-2.3 127.29-0.45L127.29-0.45Q126.14 0.6 124.69 0.6L124.69 0.6Q123.54 0.6 122.81-0.08 122.09-0.75 122.09-1.9L122.09-1.9 122.09-23.15 121.39-23.15Q119.34-23.15 118.39-23L118.39-23 118.44-24.25Q118.49-24.85 118.84-25.15 119.19-25.45 119.69-25.45L119.69-25.45 122.09-25.45 122.09-27.6Q122.09-37.1 130.69-37.1L130.69-37.1ZM163.49-3.95Q164.04-3.15 164.04-2.25L164.04-2.25Q164.04-1.1 162.96-0.3 161.89 0.5 160.34 0.5L160.34 0.5Q158.04 0.5 156.89-1.1 155.74-2.7 155.74-6.1L155.74-6.1 155.74-6.9Q154.19-3.5 151.44-1.48 148.69 0.55 145.29 0.55L145.29 0.55Q142.39 0.55 140.69-1.03 138.99-2.6 138.99-5.25L138.99-5.25Q138.99-8.25 141.29-10.33 143.59-12.4 147.34-13.45L147.34-13.45Q151.34-14.5 155.49-14.35L155.49-14.35 155.49-15.6Q155.49-20.05 154.11-22.15 152.74-24.25 149.54-24.25L149.54-24.25Q147.49-24.25 146.09-23.3 144.69-22.35 144.69-20.25L144.69-20.25Q144.69-19.15 145.21-18.13 145.74-17.1 146.79-16.7L146.79-16.7Q145.89-15.65 144.14-15.65L144.14-15.65Q142.34-15.65 141.24-16.98 140.14-18.3 140.14-20.1L140.14-20.1Q140.14-23 142.76-24.58 145.39-26.15 149.94-26.15L149.94-26.15Q155.19-26.15 157.66-23.55 160.14-20.95 160.14-15.35L160.14-15.35 160.14-5.65Q160.14-3 161.89-3L161.89-3Q162.29-3 162.74-3.25 163.19-3.5 163.49-3.95L163.49-3.95ZM147.24-2.55Q149.09-2.55 151.04-3.98 152.99-5.4 154.29-7.73 155.59-10.05 155.64-12.65L155.64-12.65Q153.79-12.75 151.74-12.48 149.69-12.2 148.29-11.6L148.29-11.6Q146.19-10.8 145.06-9.45 143.94-8.1 143.94-6.25L143.94-6.25Q143.94-4.65 144.74-3.6 145.54-2.55 147.24-2.55L147.24-2.55ZM204.38-6Q204.38-2.5 205.08-0.45L205.08-0.45Q203.93 0.6 202.48 0.6L202.48 0.6Q201.33 0.6 200.61-0.08 199.88-0.75 199.88-1.9L199.88-1.9 199.88-15.2Q199.88-19.4 198.93-21.58 197.98-23.75 195.43-23.75L195.43-23.75Q193.88-23.75 192.46-22.55 191.03-21.35 190.08-18.85 189.13-16.35 189.08-12.55L189.08-12.55 189.08-6Q189.08-2.5 189.78-0.45L189.78-0.45Q188.63 0.6 187.23 0.6L187.23 0.6Q186.13 0.6 185.43-0.08 184.73-0.75 184.73-1.9L184.73-1.9 184.68-15.2Q184.68-19.6 183.68-21.68 182.68-23.75 180.08-23.75L180.08-23.75Q178.48-23.75 177.08-22.5 175.68-21.25 174.81-18.55 173.93-15.85 173.93-11.75L173.93-11.75Q173.93-5.65 174.03-3.75 174.13-1.85 174.68-0.4L174.68-0.4Q173.68 0.6 172.08 0.6L172.08 0.6Q170.93 0.6 170.21-0.13 169.48-0.85 169.48-2.1L169.48-2.1 169.43-19.95Q169.43-21.25 169.01-21.93 168.58-22.6 167.78-22.6L167.78-22.6Q167.28-22.6 166.86-22.35 166.43-22.1 166.23-21.65L166.23-21.65Q165.68-22.4 165.68-23.3L165.68-23.3Q165.68-24.55 166.61-25.33 167.53-26.1 168.98-26.1L168.98-26.1Q171.08-26.1 172.26-24.6 173.43-23.1 173.43-20.25L173.43-20.25 173.43-19.75Q174.43-22.75 176.51-24.45 178.58-26.15 181.48-26.15L181.48-26.15Q187.43-26.15 188.68-19.9L188.68-19.9Q189.63-22.85 191.76-24.5 193.88-26.15 196.78-26.15L196.78-26.15Q204.38-26.15 204.38-15.8L204.38-15.8 204.38-6ZM214.53-29.75Q213.28-29.75 212.43-30.6 211.58-31.45 211.58-32.65L211.58-32.65Q211.58-33.9 212.43-34.75 213.28-35.6 214.53-35.6L214.53-35.6Q215.73-35.6 216.58-34.75 217.43-33.9 217.43-32.65L217.43-32.65Q217.43-31.45 216.58-30.6 215.73-29.75 214.53-29.75L214.53-29.75ZM216.98-6Q216.98-2.3 217.68-0.45L217.68-0.45Q216.63 0.6 215.08 0.6L215.08 0.6Q213.98 0.6 213.26-0.08 212.53-0.75 212.53-1.9L212.53-1.9 212.48-19.55Q212.48-23.3 211.78-25.15L211.78-25.15Q213.08-26.15 214.38-26.15L214.38-26.15Q215.53-26.15 216.23-25.5 216.93-24.85 216.93-23.7L216.93-23.7 216.98-6ZM230.08 0.5Q227.73 0.5 226.4-1.05 225.08-2.6 225.08-5.35L225.08-5.35 225.08-34.05Q225.08-35.25 225.8-35.9 226.53-36.55 227.73-36.55L227.73-36.55Q229.28-36.55 230.33-35.5L230.33-35.5Q229.88-34.05 229.75-32 229.63-29.95 229.63-25.75L229.63-25.75 229.58-5.65Q229.58-3 231.48-3L231.48-3Q232.03-3 232.53-3.25 233.03-3.5 233.23-3.95L233.23-3.95Q233.83-3.15 233.83-2.25L233.83-2.25Q233.83-1.05 232.73-0.28 231.63 0.5 230.08 0.5L230.08 0.5ZM258.93-23.45L258.98-2.5Q258.98 11.55 246.98 11.55L246.98 11.55Q243.23 11.55 240.73 10.28 238.23 9 238.23 6.2L238.23 6.2Q238.23 4.75 239.15 3.78 240.08 2.8 241.58 2.8L241.58 2.8Q243.08 2.8 243.68 3.65L243.68 3.65Q243.03 4.1 242.73 4.78 242.43 5.45 242.43 6.05L242.43 6.05Q242.43 7.9 243.75 8.85 245.08 9.8 246.98 9.8L246.98 9.8Q254.73 9.8 254.73-2.25L254.73-2.25Q254.73-3.25 254.93-5.95L254.93-5.95Q253.88-2.9 251.7-1.25 249.53 0.4 246.33 0.4L246.33 0.4Q242.48 0.4 240.6-2 238.73-4.4 238.73-10L238.73-10 238.73-19.55Q238.73-23.05 238.03-25.1L238.03-25.1Q239.28-26.15 240.63-26.15L240.63-26.15Q241.78-26.15 242.5-25.48 243.23-24.8 243.23-23.65L243.23-23.65 243.23-10.6Q243.23-6.1 244.23-4.05 245.23-2 247.63-2L247.63-2Q250.58-2 252.53-4.93 254.48-7.85 254.48-13.8L254.48-13.8Q254.48-19.9 254.38-21.8 254.28-23.7 253.73-25.15L253.73-25.15Q254.88-26.15 256.33-26.15L256.33-26.15Q257.43-26.15 258.18-25.43 258.93-24.7 258.93-23.45L258.93-23.45ZM297.77-6Q297.77-2.5 298.47-0.45L298.47-0.45Q297.32 0.6 295.92 0.6L295.92 0.6Q294.77 0.6 294.05-0.08 293.32-0.75 293.32-1.9L293.32-1.9 293.27-15.2Q293.27-19.55 292.17-21.65 291.07-23.75 288.37-23.75L288.37-23.75Q286.67-23.75 285.15-22.53 283.62-21.3 282.65-18.65 281.67-16 281.67-12L281.67-12Q281.67-5.75 281.8-3.8 281.92-1.85 282.47-0.4L282.47-0.4Q281.37 0.6 279.87 0.6L279.87 0.6Q278.72 0.6 277.97-0.13 277.22-0.85 277.22-2.1L277.22-2.1 277.22-34.05Q277.17-35.25 277.87-35.88 278.57-36.5 279.67-36.5L279.67-36.5Q280.52-36.5 281.3-36.18 282.07-35.85 282.47-35.5L282.47-35.5Q282.02-34.1 281.87-32.18 281.72-30.25 281.67-26.9L281.67-26.9 281.62-20.5Q282.72-23.2 284.82-24.68 286.92-26.15 289.77-26.15L289.77-26.15Q297.77-26.15 297.77-15.8L297.77-15.8 297.77-6ZM328.12-3.95Q328.67-3.15 328.67-2.25L328.67-2.25Q328.67-1.1 327.59-0.3 326.52 0.5 324.97 0.5L324.97 0.5Q322.67 0.5 321.52-1.1 320.37-2.7 320.37-6.1L320.37-6.1 320.37-6.9Q318.82-3.5 316.07-1.48 313.32 0.55 309.92 0.55L309.92 0.55Q307.02 0.55 305.32-1.03 303.62-2.6 303.62-5.25L303.62-5.25Q303.62-8.25 305.92-10.33 308.22-12.4 311.97-13.45L311.97-13.45Q315.97-14.5 320.12-14.35L320.12-14.35 320.12-15.6Q320.12-20.05 318.74-22.15 317.37-24.25 314.17-24.25L314.17-24.25Q312.12-24.25 310.72-23.3 309.32-22.35 309.32-20.25L309.32-20.25Q309.32-19.15 309.84-18.13 310.37-17.1 311.42-16.7L311.42-16.7Q310.52-15.65 308.77-15.65L308.77-15.65Q306.97-15.65 305.87-16.98 304.77-18.3 304.77-20.1L304.77-20.1Q304.77-23 307.39-24.58 310.02-26.15 314.57-26.15L314.57-26.15Q319.82-26.15 322.29-23.55 324.77-20.95 324.77-15.35L324.77-15.35 324.77-5.65Q324.77-3 326.52-3L326.52-3Q326.92-3 327.37-3.25 327.82-3.5 328.12-3.95L328.12-3.95ZM311.87-2.55Q313.72-2.55 315.67-3.98 317.62-5.4 318.92-7.73 320.22-10.05 320.27-12.65L320.27-12.65Q318.42-12.75 316.37-12.48 314.32-12.2 312.92-11.6L312.92-11.6Q310.82-10.8 309.69-9.45 308.57-8.1 308.57-6.25L308.57-6.25Q308.57-4.65 309.37-3.6 310.17-2.55 311.87-2.55L311.87-2.55ZM346.67-26.15Q351.47-26.15 353.42-22.58 355.37-19 355.37-13.85L355.37-13.85Q355.37-6.95 352.56-3.15 349.76 0.65 344.76 0.65L344.76 0.65Q342.31 0.65 340.56-0.33 338.81-1.3 338.06-3.1L338.06-3.1 338.06 2.2Q338.06 7.35 338.81 10.05L338.81 10.05Q338.42 10.45 337.74 10.75 337.06 11.05 336.22 11.05L336.22 11.05Q335.06 11.05 334.31 10.4 333.56 9.75 333.56 8.6L333.56 8.6 333.62-19.9Q333.62-21.3 333.29-21.88 332.97-22.45 332.22-22.45L332.22-22.45Q331.26-22.45 330.92-21.75L330.92-21.75Q330.31-22.65 330.31-23.45L330.31-23.45Q330.31-24.55 331.19-25.25 332.06-25.95 333.51-25.95L333.51-25.95Q337.76-25.95 337.87-19.3L337.87-19.3Q339.06-22.55 341.26-24.35 343.47-26.15 346.67-26.15L346.67-26.15ZM343.72-1.9Q347.06-1.9 348.79-4.93 350.51-7.95 350.51-13.85L350.51-13.85Q350.51-18.2 349.47-20.83 348.42-23.45 345.42-23.45L345.42-23.45Q343.17-23.45 341.51-21.65 339.87-19.85 338.99-16.9 338.12-13.95 338.12-10.5L338.12-10.5Q338.12-6.45 339.37-4.17 340.62-1.9 343.72-1.9L343.72-1.9ZM375.01-26.15Q379.81-26.15 381.76-22.58 383.71-19 383.71-13.85L383.71-13.85Q383.71-6.95 380.91-3.15 378.11 0.65 373.11 0.65L373.11 0.65Q370.66 0.65 368.91-0.33 367.16-1.3 366.41-3.1L366.41-3.1 366.41 2.2Q366.41 7.35 367.16 10.05L367.16 10.05Q366.76 10.45 366.09 10.75 365.41 11.05 364.56 11.05L364.56 11.05Q363.41 11.05 362.66 10.4 361.91 9.75 361.91 8.6L361.91 8.6 361.96-19.9Q361.96-21.3 361.64-21.88 361.31-22.45 360.56-22.45L360.56-22.45Q359.61-22.45 359.26-21.75L359.26-21.75Q358.66-22.65 358.66-23.45L358.66-23.45Q358.66-24.55 359.54-25.25 360.41-25.95 361.86-25.95L361.86-25.95Q366.11-25.95 366.21-19.3L366.21-19.3Q367.41-22.55 369.61-24.35 371.81-26.15 375.01-26.15L375.01-26.15ZM372.06-1.9Q375.41-1.9 377.14-4.93 378.86-7.95 378.86-13.85L378.86-13.85Q378.86-18.2 377.81-20.83 376.76-23.45 373.76-23.45L373.76-23.45Q371.51-23.45 369.86-21.65 368.21-19.85 367.34-16.9 366.46-13.95 366.46-10.5L366.46-10.5Q366.46-6.45 367.71-4.17 368.96-1.9 372.06-1.9L372.06-1.9ZM392.26-29.75Q391.01-29.75 390.16-30.6 389.31-31.45 389.31-32.65L389.31-32.65Q389.31-33.9 390.16-34.75 391.01-35.6 392.26-35.6L392.26-35.6Q393.46-35.6 394.31-34.75 395.16-33.9 395.16-32.65L395.16-32.65Q395.16-31.45 394.31-30.6 393.46-29.75 392.26-29.75L392.26-29.75ZM394.71-6Q394.71-2.3 395.41-0.45L395.41-0.45Q394.36 0.6 392.81 0.6L392.81 0.6Q391.71 0.6 390.99-0.08 390.26-0.75 390.26-1.9L390.26-1.9 390.21-19.55Q390.21-23.3 389.51-25.15L389.51-25.15Q390.81-26.15 392.11-26.15L392.11-26.15Q393.26-26.15 393.96-25.5 394.66-24.85 394.66-23.7L394.66-23.7 394.71-6ZM424.06-6Q424.16-2.15 424.81-0.45L424.81-0.45Q423.66 0.6 422.21 0.6L422.21 0.6Q421.06 0.6 420.31-0.08 419.56-0.75 419.56-1.9L419.56-1.9 419.56-15.2Q419.51-19.5 418.41-21.55 417.31-23.6 414.66-23.6L414.66-23.6Q412.96-23.6 411.43-22.38 409.91-21.15 408.93-18.55 407.96-15.95 407.96-12L407.96-12Q407.96-5.75 408.06-3.8 408.16-1.85 408.71-0.4L408.71-0.4Q408.31 0 407.63 0.3 406.96 0.6 406.11 0.6L406.11 0.6Q404.91 0.6 404.18-0.13 403.46-0.85 403.46-2.1L403.46-2.1 403.46-20.05Q403.41-21.45 403.08-22.03 402.76-22.6 402.06-22.6L402.06-22.6Q401.11-22.6 400.76-21.9L400.76-21.9Q400.16-22.75 400.16-23.55L400.16-23.55Q400.16-24.7 401.01-25.4 401.86-26.1 403.36-26.1L403.36-26.1Q405.36-26.1 406.43-24.73 407.51-23.35 407.51-20.7L407.51-20.7 407.51-20.1Q408.56-23 410.76-24.58 412.96-26.15 416.01-26.15L416.01-26.15Q424.06-26.15 424.06-15.8L424.06-15.8 424.06-6ZM450.41-6.6Q451.16-6.3 451.16-5.45L451.16-5.45Q451.16-4.9 450.81-4.05L450.81-4.05Q449.91-1.75 447.51-0.55 445.11 0.65 441.81 0.65L441.81 0.65Q436.26 0.65 433.08-2.8 429.91-6.25 429.91-12.65L429.91-12.65Q429.91-18.95 433.06-22.55 436.21-26.15 442.01-26.15L442.01-26.15Q446.21-26.15 448.78-24.25 451.36-22.35 451.36-18.85L451.36-18.85Q451.36-15.15 448.36-13.2 445.36-11.25 440.11-11.25L440.11-11.25Q437.46-11.25 434.81-11.55L434.81-11.55Q435.41-2.35 442.96-2.35L442.96-2.35Q445.66-2.35 447.63-3.48 449.61-4.6 450.41-6.6L450.41-6.6ZM441.81-24.25Q438.56-24.25 436.68-21.45 434.81-18.65 434.76-13.4L434.76-13.4Q435.81-13.3 438.11-13.2L438.11-13.2Q441.91-13.2 444.21-14.58 446.51-15.95 446.51-19.5L446.51-19.5Q446.51-22.1 445.16-23.18 443.81-24.25 441.81-24.25L441.81-24.25ZM464.7 0.65Q460 0.65 457.65-1 455.3-2.65 455.3-5.35L455.3-5.35Q455.3-6.65 455.98-7.5 456.65-8.35 458.1-8.35L458.1-8.35Q458.35-8.35 458.95-8.25L458.95-8.25Q458.8-7.6 458.8-7L458.8-7Q458.8-6.4 458.85-6.05L458.85-6.05Q459-3.9 460.65-2.63 462.3-1.35 465.15-1.35L465.15-1.35Q467.8-1.35 469.43-2.33 471.05-3.3 471.05-5.1L471.05-5.1Q471.05-6.35 470.38-7.23 469.7-8.1 468.68-8.7 467.65-9.3 465.8-10.15L465.8-10.15 464.25-10.85Q461.5-12.15 460-13.08 458.5-14 457.4-15.6 456.3-17.2 456.3-19.55L456.3-19.55Q456.3-22.9 458.88-24.55 461.45-26.2 465.45-26.2L465.45-26.2Q469.6-26.2 471.95-24.9 474.3-23.6 474.3-21.2L474.3-21.2Q474.3-20.2 473.78-19.53 473.25-18.85 472.15-18.75L472.15-18.75Q471.9-18.7 471.45-18.7L471.45-18.7Q470.95-18.7 470.65-18.8L470.65-18.8Q470.7-19.05 470.7-19.7L470.7-19.7Q470.7-20.5 470.5-21.05L470.5-21.05Q470.3-22.6 468.93-23.43 467.55-24.25 465.3-24.25L465.3-24.25Q463.2-24.25 461.83-23.45 460.45-22.65 460.45-20.95L460.45-20.95Q460.45-19.5 461.28-18.45 462.1-17.4 463.25-16.73 464.4-16.05 466.8-14.9L466.8-14.9 467.75-14.45Q470.25-13.25 471.73-12.35 473.2-11.45 474.25-10.05 475.3-8.65 475.3-6.65L475.3-6.65Q475.3-3.65 472.78-1.5 470.25 0.65 464.7 0.65L464.7 0.65ZM488.2 0.65Q483.5 0.65 481.15-1 478.8-2.65 478.8-5.35L478.8-5.35Q478.8-6.65 479.48-7.5 480.15-8.35 481.6-8.35L481.6-8.35Q481.85-8.35 482.45-8.25L482.45-8.25Q482.3-7.6 482.3-7L482.3-7Q482.3-6.4 482.35-6.05L482.35-6.05Q482.5-3.9 484.15-2.63 485.8-1.35 488.65-1.35L488.65-1.35Q491.3-1.35 492.93-2.33 494.55-3.3 494.55-5.1L494.55-5.1Q494.55-6.35 493.88-7.23 493.2-8.1 492.18-8.7 491.15-9.3 489.3-10.15L489.3-10.15 487.75-10.85Q485-12.15 483.5-13.08 482-14 480.9-15.6 479.8-17.2 479.8-19.55L479.8-19.55Q479.8-22.9 482.38-24.55 484.95-26.2 488.95-26.2L488.95-26.2Q493.1-26.2 495.45-24.9 497.8-23.6 497.8-21.2L497.8-21.2Q497.8-20.2 497.28-19.53 496.75-18.85 495.65-18.75L495.65-18.75Q495.4-18.7 494.95-18.7L494.95-18.7Q494.45-18.7 494.15-18.8L494.15-18.8Q494.2-19.05 494.2-19.7L494.2-19.7Q494.2-20.5 494-21.05L494-21.05Q493.8-22.6 492.43-23.43 491.05-24.25 488.8-24.25L488.8-24.25Q486.7-24.25 485.33-23.45 483.95-22.65 483.95-20.95L483.95-20.95Q483.95-19.5 484.78-18.45 485.6-17.4 486.75-16.73 487.9-16.05 490.3-14.9L490.3-14.9 491.25-14.45Q493.75-13.25 495.23-12.35 496.7-11.45 497.75-10.05 498.8-8.65 498.8-6.65L498.8-6.65Q498.8-3.65 496.28-1.5 493.75 0.65 488.2 0.65L488.2 0.65Z" opacity="1" transform="matrix(1,0,0,1,0,0)" fill="#ffffff" class="slogan-text-1" data-fill-palette-color="secondary" id="text-1"></path></svg></g></svg></g></svg></g></svg></g><g transform="matrix(1,0,0,1,76.69984,0)"><svg viewBox="0 0 70.60032000000001 70.60032000000001" height="70.60032000000001" width="70.60032000000001"><g><svg viewBox="0 0 70.60032000000001 70.60032000000001" height="70.60032000000001" width="70.60032000000001"><g transform="matrix(1,0,0,1,18.65950499135326,21.213448081833718)"><svg viewBox="0 0 33.28131001729349 28.17342383633257" height="28.17342383633257" width="33.28131001729349"><g><svg xmlns="http://www.w3.org/2000/svg" xmlns:xlink="http://www.w3.org/1999/xlink" version="1.1" x="0" y="0" viewBox="21.73099999999999 26.067000000000007 56.54299999999999 47.86499999999998" enable-background="new 0 0 100 100" xml:space="preserve" height="28.17342383633257" width="33.28131001729349" class="icon-cg-0" data-fill-palette-color="accent" id="cg-0"><path d="M70.252 51.597c2.928-4.099 4.62-8.977 4.829-14.102 0.02-0.46-0.155-0.907-0.481-1.232-0.326-0.326-0.754-0.501-1.233-0.48-2.619 0.109-5.17 0.608-7.588 1.453-0.144-2.58-0.665-5.117-1.563-7.571-0.158-0.433-0.49-0.779-0.915-0.956-0.427-0.176-0.906-0.167-1.323 0.026-2.346 1.085-4.496 2.506-6.423 4.233-1.11-2.3-2.56-4.449-4.329-6.37-0.156-0.17-0.349-0.297-0.558-0.382-0.212-0.096-0.443-0.149-0.68-0.149 0 0 0 0 0 0-0.46 0-0.899 0.192-1.211 0.531-1.77 1.92-3.218 4.068-4.328 6.368-1.927-1.727-4.077-3.146-6.421-4.231-0.417-0.193-0.897-0.203-1.322-0.026-0.425 0.176-0.757 0.522-0.916 0.955-0.899 2.453-1.423 4.991-1.566 7.572-2.418-0.845-4.97-1.344-7.588-1.453-0.465-0.024-0.907 0.154-1.233 0.48-0.326 0.325-0.5 0.772-0.482 1.232 0.209 5.125 1.902 10.002 4.83 14.102-5.188 2.405-8.02 5.643-8.02 9.249 0 1.966 0.844 3.832 2.508 5.547 0.417 0.429 1.035 0.596 1.613 0.442 3.21-0.871 5.715-0.646 7.01 0.648 0.688 0.688 1.076 1.728 1.152 3.09 0.039 0.706 0.525 1.309 1.208 1.496 4.427 1.219 9.539 1.863 14.781 1.863 15.853 0 28.271-5.749 28.271-13.087C78.271 57.238 75.44 54.002 70.252 51.597zM66.443 51.143c-0.023 0.023-0.053 0.038-0.075 0.064-0.094 0.109-0.202 0.232-0.305 0.35-0.3 0.338-0.597 0.677-0.918 0.998-0.459 0.459-0.94 0.89-1.432 1.305-0.149 0.126-0.303 0.244-0.455 0.365-0.36 0.288-0.728 0.566-1.104 0.831-0.169 0.119-0.339 0.238-0.511 0.353-0.416 0.277-0.842 0.538-1.274 0.786-0.123 0.071-0.243 0.147-0.367 0.216-0.56 0.308-1.131 0.59-1.714 0.849-0.128 0.057-0.26 0.104-0.389 0.159-0.462 0.194-0.93 0.375-1.404 0.539-0.191 0.066-0.385 0.128-0.578 0.188-0.441 0.14-0.889 0.265-1.34 0.377-0.183 0.046-0.364 0.096-0.549 0.137-0.086 0.02-0.174 0.029-0.259 0.048 0.021-0.031 0.038-0.064 0.059-0.095 0.019-0.029 0.038-0.058 0.057-0.087 0.002-0.002 0.004-0.004 0.006-0.006 0.005-0.008 0.01-0.015 0.015-0.022 0.007-0.009 0.013-0.019 0.02-0.027l0.026-0.041c0.019-0.027 0.043-0.064 0.045-0.067l0.008-0.012c0.005-0.007 0.007-0.015 0.011-0.021 0.221-0.343 0.433-0.689 0.636-1.042 0.003-0.005 0.006-0.011 0.01-0.016 0.142-0.246 0.277-0.495 0.411-0.746 0.002-0.003 0.005-0.005 0.007-0.008 0.002-0.002 0.003-0.005 0.004-0.007l0.067-0.124h-0.001l0.006-0.009c0.003-0.006 0.003-0.012 0.006-0.018 0.315-0.602 0.607-1.214 0.874-1.837 0.002-0.003 0.004-0.004 0.005-0.007 0.001-0.002 0.001-0.003 0.002-0.005l0.031-0.072c0.001-0.004 0.003-0.008 0.005-0.013l0.045-0.104c0.003-0.006 0.002-0.013 0.004-0.019 0.266-0.636 0.508-1.28 0.722-1.935l0.065-0.197-0.003-0.001c0.123-0.387 0.237-0.775 0.342-1.168 0.001-0.003 0.002-0.006 0.002-0.009 0.092-0.342 0.177-0.685 0.254-1.031h0.001c0.001-0.003 0-0.005 0.001-0.008 0.169-0.758 0.306-1.523 0.406-2.297 0.001-0.005 0.001-0.011 0.002-0.017 0.069-0.534 0.12-1.071 0.157-1.611 0.001-0.026 0.006-0.051 0.007-0.078 0.069-0.077 0.136-0.155 0.21-0.229 0.467-0.467 0.954-0.912 1.46-1.335 0.03-0.025 0.063-0.047 0.094-0.073 1.507-1.246 3.179-2.3 4.996-3.138 0.01-0.004 0.017-0.012 0.026-0.017 2.129-0.979 4.405-1.643 6.769-1.933C71.099 43.635 69.298 47.763 66.443 51.143zM54.76 45.969c-0.012 0.153-0.024 0.306-0.039 0.458-0.045 0.48-0.104 0.958-0.18 1.432-0.027 0.166-0.058 0.33-0.088 0.495-0.083 0.456-0.177 0.91-0.287 1.359-0.045 0.183-0.097 0.363-0.146 0.544-0.116 0.429-0.24 0.855-0.382 1.276-0.066 0.194-0.141 0.387-0.212 0.579-0.148 0.404-0.301 0.807-0.472 1.202-0.085 0.196-0.182 0.389-0.272 0.583-0.18 0.385-0.361 0.77-0.562 1.145-0.102 0.189-0.217 0.372-0.324 0.559-0.213 0.371-0.424 0.742-0.658 1.102-0.118 0.182-0.251 0.354-0.374 0.531-0.243 0.351-0.482 0.703-0.746 1.042-0.003 0.004-0.007 0.008-0.01 0.012-0.036-0.047-0.077-0.09-0.113-0.137-0.143-0.187-0.271-0.38-0.408-0.57-0.248-0.345-0.495-0.689-0.723-1.046-0.11-0.173-0.21-0.353-0.315-0.528-0.232-0.386-0.46-0.773-0.669-1.172-0.087-0.166-0.165-0.336-0.248-0.504-0.204-0.415-0.402-0.833-0.581-1.259-0.072-0.172-0.136-0.347-0.204-0.521-0.167-0.426-0.325-0.854-0.465-1.29-0.062-0.189-0.116-0.382-0.172-0.574-0.124-0.42-0.238-0.844-0.338-1.272-0.05-0.216-0.094-0.433-0.138-0.65-0.082-0.409-0.155-0.819-0.215-1.233-0.034-0.237-0.063-0.476-0.09-0.714-0.045-0.404-0.081-0.81-0.104-1.216-0.005-0.095-0.007-0.191-0.012-0.287 0-0.005 0.001-0.01 0.001-0.015 0-0.013-0.003-0.025-0.004-0.039-0.014-0.325-0.041-0.648-0.041-0.975 0-0.656 0.03-1.309 0.086-1.958 0.018-0.202 0.053-0.4 0.076-0.601 0.051-0.449 0.102-0.897 0.179-1.341 0.037-0.213 0.091-0.422 0.134-0.633 0.088-0.432 0.177-0.864 0.291-1.291 0.052-0.196 0.118-0.389 0.175-0.583 0.129-0.438 0.263-0.874 0.418-1.305 0.813-2.252 1.975-4.38 3.471-6.298 3.127 4.008 4.83 8.915 4.83 14.01C54.83 44.851 54.801 45.411 54.76 45.969zM56.873 36.247c1.451-1.443 3.065-2.67 4.821-3.666 0.547 1.973 0.824 3.997 0.831 6.045-1.572 0.803-3.062 1.767-4.449 2.881-0.024 0.02-0.051 0.038-0.075 0.057-0.012-0.109-0.03-0.217-0.043-0.326-0.033-0.288-0.069-0.576-0.112-0.862-0.022-0.147-0.048-0.294-0.073-0.442-0.049-0.288-0.101-0.576-0.159-0.862-0.027-0.135-0.057-0.271-0.087-0.406-0.067-0.306-0.141-0.61-0.219-0.914-0.028-0.111-0.058-0.223-0.088-0.335-0.093-0.339-0.193-0.676-0.299-1.011C56.903 36.354 56.891 36.3 56.873 36.247zM38.307 32.581c1.755 0.996 3.369 2.224 4.822 3.667-0.558 1.722-0.937 3.502-1.126 5.319-0.022-0.019-0.046-0.035-0.069-0.053-1.39-1.118-2.884-2.084-4.459-2.889C37.48 36.576 37.76 34.553 38.307 32.581zM35.131 41.161c0.009 0.004 0.017 0.012 0.026 0.017 1.812 0.834 3.478 1.885 4.982 3.127 0.036 0.029 0.074 0.055 0.11 0.085 0.506 0.423 0.993 0.868 1.459 1.334 0.074 0.075 0.142 0.153 0.21 0.231 0.294 4.575 1.784 8.959 4.315 12.754-0.082-0.018-0.166-0.027-0.248-0.046-0.197-0.044-0.391-0.096-0.586-0.146-0.437-0.109-0.87-0.229-1.298-0.364-0.204-0.064-0.407-0.129-0.609-0.199-0.463-0.16-0.92-0.337-1.372-0.527-0.137-0.058-0.278-0.107-0.414-0.168-0.58-0.258-1.149-0.539-1.706-0.845-0.129-0.071-0.253-0.151-0.381-0.225-0.429-0.246-0.851-0.505-1.263-0.779-0.173-0.114-0.343-0.233-0.513-0.354-0.376-0.266-0.744-0.544-1.104-0.832-0.151-0.121-0.305-0.239-0.453-0.364-0.493-0.415-0.974-0.846-1.434-1.306-0.321-0.32-0.618-0.659-0.917-0.996-0.103-0.118-0.209-0.237-0.308-0.354-0.021-0.024-0.05-0.039-0.072-0.062-2.854-3.379-4.654-7.507-5.194-11.916C30.726 39.518 33.002 40.182 35.131 41.161zM50 70.638c-4.53 0-8.941-0.505-12.834-1.465-0.281-1.638-0.943-2.985-1.977-4.02-2.013-2.013-5.185-2.623-9.187-1.746-0.65-0.854-0.979-1.712-0.979-2.562 0-2.333 2.552-4.762 6.885-6.607 0.203 0.217 0.405 0.435 0.616 0.646 4.354 4.355 10.062 7.002 16.182 7.53 0.408 0.035 0.817 0.061 1.229 0.077 0.021 0.001 0.042 0.002 0.062 0.002 0 0 0 0 0.001 0h0.022c0.003 0 0.006-0.001 0.009-0.001 0.012 0 0.024 0 0.036-0.001 6.583-0.26 12.766-2.962 17.411-7.607 0.211-0.211 0.413-0.429 0.616-0.646 4.334 1.846 6.885 4.274 6.885 6.607C74.977 65.478 64.719 70.638 50 70.638z" fill="#ffffff" data-fill-palette-color="accent"></path></svg></g></svg></g><g id="text-0"><path d="M0.974 23.387c0.38-1.086 0.846-1.828 1.398-2.226 0.546-0.4 1.213-0.463 2.001-0.187v0c0.825 0.289 1.351 0.793 1.576 1.513 0.226 0.72 0.142 1.642-0.251 2.766v0l-0.1 0.286 1.762 0.616c0.19 0.067 0.403 0.13 0.638 0.192 0.231 0.052 0.433 0.077 0.605 0.072v0c0.037 0.077 0.059 0.177 0.066 0.301 0.015 0.119 0.001 0.243-0.043 0.37v0c-0.062 0.178-0.163 0.303-0.303 0.375-0.133 0.075-0.285 0.082-0.456 0.022v0l-5.924-2.072c-0.171-0.06-0.385-0.121-0.642-0.182-0.257-0.061-0.473-0.094-0.65-0.099v0c-0.047-0.416 0.06-0.998 0.323-1.747zM5.282 25.097c0.278-0.794 0.308-1.431 0.092-1.913-0.22-0.49-0.661-0.851-1.321-1.082v0c-0.635-0.222-1.173-0.222-1.615 0.001-0.435 0.225-0.784 0.713-1.046 1.462v0c-0.082 0.235-0.125 0.387-0.128 0.458v0l3.915 1.369z" fill="#ffffff" data-fill-palette-color="accent"></path><path d="M13.495 18.038c-0.526 0.682-1.155 1.046-1.888 1.093-0.728 0.041-1.484-0.24-2.267-0.844v0c-0.788-0.608-1.255-1.27-1.4-1.984-0.146-0.724 0.043-1.428 0.57-2.11v0c0.526-0.682 1.156-1.041 1.889-1.078 0.728-0.041 1.487 0.242 2.275 0.85v0c0.783 0.604 1.247 1.263 1.392 1.978 0.145 0.715-0.045 1.413-0.571 2.095zM13.143 17.767c0.316-0.41 0.373-0.863 0.17-1.36-0.198-0.492-0.643-1.006-1.335-1.539v0c-0.698-0.538-1.313-0.842-1.845-0.913-0.532-0.07-0.956 0.099-1.272 0.509v0c-0.32 0.415-0.379 0.871-0.176 1.368 0.203 0.497 0.654 1.014 1.352 1.552v0c0.692 0.534 1.302 0.834 1.828 0.901 0.532 0.07 0.958-0.102 1.278-0.518z" fill="#ffffff" data-fill-palette-color="accent"></path><path d="M14.17 7.352c-0.153 0.121-0.322 0.172-0.507 0.155-0.189-0.023-0.342-0.108-0.458-0.255v0c-0.121-0.153-0.17-0.324-0.147-0.514 0.023-0.189 0.11-0.344 0.264-0.464v0c0.148-0.116 0.316-0.163 0.505-0.141 0.189 0.023 0.344 0.11 0.464 0.264v0c0.116 0.148 0.163 0.316 0.141 0.505-0.027 0.184-0.114 0.334-0.262 0.45zM18.073 11.381c0.358 0.455 0.673 0.763 0.946 0.925v0c-0.032 0.231-0.144 0.421-0.334 0.57v0c-0.137 0.108-0.284 0.155-0.44 0.142-0.147-0.013-0.277-0.09-0.389-0.233v0l-2.581-3.246c-0.362-0.46-0.677-0.773-0.944-0.939v0c0.063-0.246 0.176-0.434 0.34-0.563v0c0.137-0.108 0.282-0.158 0.434-0.15 0.147 0.013 0.277 0.09 0.389 0.234v0z" fill="#ffffff" data-fill-palette-color="accent"></path><path d="M26.77 7.109c0.251 0.551 0.475 0.931 0.671 1.141v0c-0.106 0.219-0.264 0.372-0.475 0.46v0c-0.161 0.067-0.319 0.074-0.472 0.022-0.144-0.049-0.251-0.158-0.321-0.326v0l-1.202-2.887c-0.271-0.616-0.546-1.04-0.826-1.274-0.283-0.225-0.614-0.258-0.992-0.1v0c-0.248 0.103-0.448 0.289-0.6 0.555-0.142 0.271-0.207 0.622-0.195 1.054 0.021 0.436 0.151 0.939 0.389 1.511v0c0.375 0.9 0.628 1.491 0.759 1.771 0.129 0.274 0.277 0.5 0.446 0.678v0c-0.033 0.079-0.09 0.161-0.171 0.246-0.081 0.085-0.184 0.153-0.308 0.204v0c-0.168 0.07-0.326 0.074-0.475 0.013-0.15-0.062-0.262-0.182-0.337-0.363v0l-1.621-3.893c-0.089-0.196-0.176-0.327-0.263-0.394-0.083-0.06-0.175-0.069-0.274-0.028v0c-0.137 0.057-0.209 0.145-0.217 0.265v0c-0.139-0.088-0.231-0.188-0.278-0.299v0c-0.07-0.168-0.063-0.327 0.02-0.478 0.08-0.157 0.226-0.28 0.437-0.368v0c0.292-0.122 0.557-0.115 0.795 0.019 0.238 0.134 0.437 0.394 0.597 0.778v0l0.054 0.131c-0.018-0.481 0.084-0.902 0.305-1.264 0.221-0.362 0.552-0.634 0.993-0.818v0c1.161-0.483 2.053 0.023 2.676 1.52v0z" fill="#ffffff" data-fill-palette-color="accent"></path><path d="M32.367 1.458c0.134-0.015 0.314-0.038 0.54-0.071 0.227-0.032 0.406-0.059 0.54-0.08v0l0.011 0.283c0.004 0.094-0.018 0.168-0.067 0.22-0.048 0.059-0.111 0.094-0.191 0.103v0l-1.154 0.129 0.047 0.421 0.399 3.661c0.047 0.421 0.258 0.611 0.632 0.569v0c0.107-0.012 0.212-0.044 0.315-0.096 0.097-0.045 0.157-0.106 0.182-0.183v0c0.108 0.117 0.17 0.245 0.185 0.386v0c0.022 0.194-0.058 0.358-0.239 0.493-0.18 0.142-0.428 0.231-0.742 0.266v0c-0.381 0.043-0.692-0.045-0.932-0.261-0.247-0.216-0.395-0.538-0.443-0.966v0l-0.466-4.171-0.171 0.019c-0.314 0.035-0.547 0.075-0.697 0.118v0l-0.024-0.302c-0.004-0.094 0.018-0.168 0.067-0.22 0.048-0.053 0.116-0.084 0.202-0.094v0l0.562-0.063-0.109-0.973c-0.02-0.18 0.021-0.327 0.124-0.44 0.102-0.113 0.247-0.18 0.434-0.201v0c0.214-0.024 0.42 0.031 0.618 0.165v0c-0.054 0.304-0.052 0.747 0.006 1.329v0z" fill="#ffffff" data-fill-palette-color="accent"></path><path d="M43.274 7.388c0.066 0.14 0.088 0.28 0.065 0.419v0c-0.028 0.173-0.135 0.309-0.321 0.408-0.186 0.099-0.399 0.13-0.639 0.091v0c-0.352-0.057-0.597-0.226-0.735-0.507-0.139-0.275-0.167-0.674-0.082-1.199v0l0.031-0.19c-0.325 0.492-0.725 0.86-1.201 1.104-0.475 0.243-0.976 0.322-1.5 0.238v0c-0.452-0.073-0.787-0.254-1.006-0.542-0.226-0.289-0.306-0.636-0.241-1.04v0c0.075-0.465 0.318-0.828 0.729-1.088 0.405-0.268 0.909-0.435 1.512-0.502v0c0.651-0.065 1.293-0.032 1.926 0.098v0l0.047-0.289c0.112-0.691 0.088-1.216-0.072-1.576-0.16-0.36-0.485-0.579-0.977-0.659v0c-0.319-0.052-0.6-0.019-0.844 0.099-0.236 0.112-0.381 0.33-0.433 0.655v0c-0.027 0.166-0.013 0.335 0.041 0.508 0.054 0.172 0.159 0.302 0.315 0.388v0c-0.166 0.143-0.386 0.193-0.658 0.149v0c-0.279-0.045-0.488-0.185-0.627-0.418-0.133-0.233-0.176-0.489-0.132-0.768v0c0.072-0.445 0.33-0.757 0.776-0.937 0.445-0.18 1.019-0.213 1.723-0.099v0c0.81 0.131 1.375 0.431 1.694 0.898 0.314 0.46 0.401 1.124 0.26 1.994v0l-0.363 2.241c-0.067 0.412 0.036 0.64 0.308 0.684v0c0.066 0.011 0.136 0.002 0.209-0.028 0.072-0.022 0.137-0.066 0.195-0.132zM39.456 7.107c0.286 0.046 0.599-0.019 0.941-0.195 0.334-0.171 0.63-0.419 0.888-0.746 0.264-0.325 0.432-0.69 0.504-1.093v0c-0.283-0.06-0.588-0.092-0.914-0.097-0.325-0.012-0.602 0.012-0.83 0.07v0c-0.346 0.073-0.625 0.199-0.837 0.375-0.206 0.178-0.332 0.41-0.378 0.695v0c-0.041 0.252-0.011 0.468 0.089 0.648 0.099 0.186 0.278 0.301 0.537 0.343z" fill="#ffffff" data-fill-palette-color="accent"></path><path d="M54 4.21c0.115 0.056 0.128 0.175 0.04 0.356v0c-0.056 0.115-0.139 0.217-0.249 0.305-0.11 0.088-0.211 0.133-0.301 0.134v0c-0.825-0.641-1.707-1.205-2.645-1.691v0l-1.324 2.745 2.513 1.223c-0.02 0.102-0.053 0.202-0.1 0.299v0c-0.047 0.097-0.103 0.182-0.169 0.254v0l-2.513-1.223-1.077 2.259c-0.253 0.52-0.396 0.937-0.429 1.25v0c-0.24 0.063-0.463 0.044-0.668-0.056v0c-0.169-0.082-0.282-0.197-0.338-0.344-0.059-0.141-0.048-0.293 0.031-0.456v0l2.693-5.534c0.23-0.472 0.367-0.876 0.411-1.214v0c0.156-0.044 0.3-0.056 0.433-0.036 0.139 0.023 0.314 0.085 0.526 0.188v0z" fill="#ffffff" data-fill-palette-color="accent"></path><path d="M57.998 17.04c-0.027 0.153-0.089 0.279-0.188 0.381v0c-0.122 0.125-0.288 0.175-0.497 0.149-0.21-0.026-0.401-0.123-0.575-0.292v0c-0.255-0.249-0.359-0.528-0.311-0.838 0.044-0.305 0.251-0.648 0.622-1.029v0l0.134-0.137c-0.549 0.216-1.088 0.288-1.617 0.214-0.529-0.074-0.984-0.296-1.365-0.667v0c-0.328-0.319-0.499-0.659-0.512-1.021-0.019-0.366 0.115-0.696 0.401-0.99v0c0.329-0.337 0.736-0.495 1.221-0.472 0.485 0.013 0.994 0.165 1.525 0.458v0c0.57 0.321 1.077 0.716 1.521 1.186v0l0.205-0.21c0.488-0.501 0.77-0.945 0.846-1.331 0.076-0.386-0.065-0.753-0.422-1.101v0c-0.231-0.225-0.48-0.36-0.747-0.404-0.257-0.044-0.501 0.052-0.731 0.288v0c-0.117 0.12-0.203 0.267-0.258 0.439-0.055 0.172-0.043 0.338 0.035 0.499v0c-0.219 0.022-0.427-0.063-0.624-0.256v0c-0.202-0.197-0.293-0.431-0.274-0.703 0.025-0.267 0.136-0.501 0.334-0.703v0c0.314-0.323 0.706-0.43 1.173-0.323 0.468 0.108 0.957 0.411 1.467 0.909v0c0.588 0.573 0.878 1.142 0.872 1.708-0.007 0.557-0.318 1.151-0.933 1.782v0l-1.584 1.626c-0.291 0.299-0.338 0.544-0.14 0.737v0c0.048 0.047 0.11 0.079 0.186 0.097 0.072 0.023 0.15 0.024 0.236 0.004zM55.034 14.617c0.207 0.202 0.501 0.329 0.882 0.381 0.372 0.052 0.757 0.019 1.155-0.101 0.403-0.115 0.75-0.317 1.041-0.605v0c-0.198-0.211-0.429-0.413-0.693-0.605-0.259-0.196-0.499-0.336-0.719-0.419v0c-0.325-0.138-0.626-0.196-0.901-0.173-0.271 0.027-0.507 0.145-0.709 0.351v0c-0.178 0.183-0.278 0.377-0.299 0.582-0.026 0.21 0.055 0.406 0.243 0.589z" fill="#ffffff" data-fill-palette-color="accent"></path><path d="M63.974 27.548c-0.501 0.232-0.875 0.464-1.123 0.697v0c-0.223-0.097-0.381-0.246-0.473-0.448v0c-0.076-0.165-0.09-0.322-0.04-0.471 0.044-0.146 0.148-0.257 0.312-0.333v0l2.839-1.313c0.598-0.277 1.019-0.553 1.262-0.829 0.249-0.278 0.291-0.598 0.124-0.957v0c-0.104-0.226-0.289-0.4-0.552-0.523-0.264-0.122-0.604-0.169-1.021-0.139-0.416 0.029-0.897 0.167-1.444 0.412v0l-1.392 0.644c-0.501 0.232-0.875 0.464-1.122 0.697v0c-0.223-0.097-0.379-0.243-0.47-0.439v0c-0.073-0.159-0.084-0.31-0.031-0.452 0.044-0.146 0.148-0.257 0.312-0.334v0l2.835-1.322c0.623-0.288 1.051-0.571 1.285-0.85 0.228-0.276 0.256-0.6 0.084-0.973v0c-0.104-0.226-0.292-0.399-0.562-0.518-0.267-0.113-0.623-0.145-1.067-0.096-0.441 0.056-0.952 0.218-1.532 0.486v0c-0.867 0.401-1.435 0.671-1.704 0.811-0.26 0.143-0.477 0.298-0.65 0.467v0c-0.205-0.075-0.36-0.226-0.465-0.452v0c-0.076-0.165-0.086-0.323-0.031-0.475 0.056-0.152 0.172-0.269 0.349-0.35v0l3.797-1.767c0.189-0.088 0.316-0.183 0.379-0.286 0.069-0.106 0.079-0.214 0.027-0.325v0c-0.034-0.073-0.083-0.132-0.148-0.176-0.059-0.047-0.127-0.067-0.205-0.06v0c0.073-0.13 0.171-0.224 0.292-0.28v0c0.183-0.085 0.359-0.088 0.529-0.011 0.172 0.083 0.306 0.229 0.402 0.437v0c0.138 0.299 0.139 0.581 0.001 0.844-0.137 0.264-0.411 0.49-0.819 0.679v0l-0.101 0.047c0.495-0.051 0.93 0.015 1.303 0.197 0.38 0.18 0.666 0.478 0.858 0.893v0c0.39 0.843 0.18 1.558-0.63 2.148v0c0.486-0.054 0.914 0.014 1.285 0.206 0.376 0.189 0.661 0.491 0.853 0.906v0c0.5 1.081 0.014 1.961-1.458 2.642v0z" fill="#ffffff" data-fill-palette-color="accent"></path><path d="M10.668 44.835c0.377 1.08 0.473 1.947 0.289 2.603-0.178 0.654-0.657 1.117-1.439 1.389v0c-0.819 0.286-1.541 0.218-2.166-0.205-0.625-0.423-1.133-1.193-1.523-2.311v0l-0.1-0.286-1.753 0.613c-0.191 0.067-0.392 0.151-0.606 0.254-0.216 0.097-0.389 0.203-0.518 0.32v0c-0.079-0.044-0.159-0.108-0.239-0.194-0.086-0.084-0.152-0.189-0.196-0.317v0c-0.062-0.178-0.06-0.335 0.006-0.472 0.058-0.141 0.172-0.242 0.343-0.302v0l5.887-2.056c0.171-0.06 0.377-0.146 0.615-0.257 0.232-0.11 0.422-0.219 0.57-0.328v0c0.293 0.289 0.57 0.806 0.829 1.549zM6.254 46.184c0.275 0.787 0.647 1.302 1.117 1.544 0.469 0.242 1.034 0.248 1.695 0.018v0c0.635-0.222 1.053-0.556 1.252-1.004 0.196-0.439 0.164-1.03-0.095-1.773v0c-0.082-0.235-0.142-0.385-0.179-0.451v0l-3.896 1.361z" fill="#ffffff" data-fill-palette-color="accent"></path><path d="M8.261 57.605c-0.521-0.677-0.709-1.372-0.564-2.087 0.14-0.711 0.599-1.366 1.377-1.965v0c0.783-0.604 1.539-0.885 2.268-0.843 0.734 0.037 1.361 0.395 1.882 1.071v0c0.526 0.682 0.711 1.38 0.557 2.093-0.145 0.715-0.61 1.374-1.393 1.978v0c-0.778 0.599-1.528 0.876-2.252 0.831-0.724-0.036-1.349-0.395-1.875-1.078zM8.613 57.334c0.316 0.41 0.738 0.582 1.264 0.517 0.532-0.07 1.139-0.368 1.821-0.894v0c0.698-0.538 1.146-1.053 1.344-1.545 0.203-0.496 0.147-0.95-0.169-1.36v0c-0.316-0.41-0.74-0.58-1.272-0.51-0.527 0.066-1.139 0.368-1.837 0.906v0c-0.682 0.526-1.125 1.037-1.328 1.533-0.198 0.492-0.139 0.944 0.177 1.353z" fill="#ffffff" data-fill-palette-color="accent"></path><path d="M18.901 58.263c-0.153-0.121-0.238-0.273-0.256-0.458-0.027-0.184 0.018-0.349 0.135-0.498v0c0.121-0.153 0.275-0.241 0.464-0.263 0.179-0.021 0.346 0.028 0.499 0.149v0c0.148 0.117 0.235 0.267 0.262 0.45 0.022 0.189-0.027 0.36-0.147 0.513v0c-0.117 0.148-0.267 0.231-0.452 0.248-0.189 0.022-0.357-0.025-0.505-0.141zM15.92 62.979c-0.358 0.455-0.584 0.829-0.679 1.122v0c-0.227 0.027-0.435-0.034-0.625-0.184v0c-0.132-0.104-0.21-0.234-0.233-0.389-0.027-0.15 0.015-0.296 0.127-0.439v0l2.545-3.248c0.362-0.46 0.588-0.834 0.678-1.123v0c0.258-0.002 0.467 0.059 0.626 0.184v0c0.143 0.112 0.223 0.244 0.241 0.395 0.022 0.146-0.021 0.287-0.129 0.425v0z" fill="#ffffff" data-fill-palette-color="accent"></path><path d="M25.431 67.73c-0.211 0.561-0.322 0.984-0.332 1.272v0c-0.23 0.079-0.45 0.075-0.662-0.013v0c-0.161-0.067-0.277-0.174-0.348-0.32-0.067-0.137-0.065-0.289 0.005-0.457v0l1.193-2.869c0.252-0.624 0.358-1.115 0.318-1.474-0.034-0.356-0.24-0.614-0.619-0.771v0c-0.248-0.103-0.517-0.113-0.807-0.03-0.29 0.083-0.583 0.282-0.881 0.595-0.3 0.319-0.568 0.762-0.804 1.327v0c-0.375 0.901-0.611 1.494-0.708 1.782-0.104 0.285-0.159 0.549-0.166 0.794v0c-0.079 0.033-0.177 0.05-0.295 0.052-0.117 0.002-0.235-0.021-0.353-0.07v0c-0.174-0.072-0.292-0.183-0.354-0.333-0.062-0.149-0.055-0.314 0.02-0.495v0l1.608-3.866c0.079-0.208 0.114-0.361 0.104-0.459-0.016-0.101-0.074-0.173-0.173-0.214v0c-0.137-0.057-0.25-0.046-0.342 0.032v0c-0.035-0.16-0.03-0.296 0.017-0.408v0c0.07-0.168 0.184-0.277 0.344-0.327 0.166-0.048 0.357-0.026 0.574 0.064v0c0.286 0.119 0.466 0.307 0.542 0.564 0.073 0.263 0.029 0.588-0.132 0.973v0l-0.054 0.13c0.325-0.36 0.692-0.586 1.102-0.678 0.412-0.098 0.839-0.055 1.28 0.128v0c1.155 0.48 1.423 1.466 0.802 2.956v0z" fill="#ffffff" data-fill-palette-color="accent"></path><path d="M33.009 64.575c0.134 0.015 0.311 0.031 0.533 0.049 0.229 0.012 0.41 0.022 0.544 0.03v0l-0.051 0.278c-0.017 0.093-0.055 0.16-0.114 0.201-0.059 0.048-0.126 0.067-0.199 0.059v0l-1.153-0.128-0.047 0.421-0.415 3.639c-0.047 0.421 0.114 0.652 0.482 0.693v0c0.114 0.013 0.223 0.004 0.327-0.024 0.111-0.028 0.184-0.074 0.219-0.138v0c0.08 0.131 0.113 0.266 0.097 0.406v0c-0.022 0.194-0.136 0.337-0.343 0.429-0.207 0.099-0.465 0.131-0.772 0.097v0c-0.381-0.042-0.665-0.196-0.852-0.46-0.187-0.264-0.257-0.611-0.21-1.039v0l0.461-4.141-0.181-0.02c-0.308-0.034-0.539-0.05-0.695-0.047v0l0.042-0.29c0.016-0.086 0.054-0.15 0.113-0.19 0.059-0.041 0.131-0.056 0.218-0.047v0l0.562 0.062 0.109-0.982c0.019-0.174 0.088-0.305 0.206-0.394 0.125-0.088 0.281-0.121 0.468-0.1v0c0.214 0.024 0.403 0.123 0.566 0.296v0c-0.12 0.284-0.215 0.717-0.286 1.299v0z" fill="#ffffff" data-fill-palette-color="accent"></path><path d="M44 68.626c0.106 0.105 0.17 0.228 0.193 0.367v0c0.029 0.179-0.029 0.342-0.176 0.489-0.145 0.153-0.338 0.249-0.577 0.288v0c-0.352 0.057-0.637-0.022-0.856-0.238-0.214-0.224-0.363-0.595-0.448-1.113v0l-0.03-0.19c-0.154 0.563-0.417 1.036-0.792 1.417-0.374 0.381-0.82 0.614-1.338 0.699v0c-0.445 0.072-0.82 0.008-1.125-0.195-0.298-0.197-0.48-0.501-0.548-0.913v0c-0.075-0.458 0.038-0.875 0.338-1.251 0.3-0.376 0.726-0.691 1.278-0.944v0c0.59-0.267 1.206-0.438 1.848-0.516v0l-0.047-0.289c-0.111-0.684-0.3-1.171-0.565-1.461-0.265-0.291-0.644-0.396-1.136-0.316v0c-0.312 0.051-0.566 0.167-0.761 0.349-0.189 0.181-0.256 0.434-0.203 0.758v0c0.028 0.173 0.094 0.329 0.199 0.469 0.106 0.146 0.243 0.236 0.412 0.27v0c-0.106 0.188-0.295 0.304-0.567 0.348v0c-0.279 0.045-0.518-0.021-0.717-0.2-0.206-0.178-0.331-0.403-0.376-0.675v0c-0.074-0.451 0.073-0.83 0.439-1.134 0.365-0.312 0.896-0.524 1.593-0.638v0c0.81-0.132 1.437-0.026 1.881 0.317 0.45 0.336 0.745 0.935 0.886 1.798v0l0.363 2.231c0.067 0.412 0.233 0.596 0.499 0.552v0c0.06-0.01 0.123-0.04 0.19-0.092 0.06-0.051 0.108-0.113 0.143-0.187zM40.308 69.555c0.285-0.046 0.56-0.204 0.822-0.472 0.263-0.268 0.465-0.597 0.606-0.988 0.141-0.391 0.182-0.786 0.124-1.185v0c-0.281 0.032-0.578 0.094-0.89 0.186-0.306 0.091-0.56 0.2-0.764 0.329v0c-0.298 0.178-0.52 0.385-0.666 0.619-0.139 0.234-0.185 0.494-0.139 0.779v0c0.04 0.246 0.137 0.441 0.29 0.587 0.145 0.14 0.351 0.188 0.617 0.145z" fill="#ffffff" data-fill-palette-color="accent"></path><path d="M49.645 58.446c0.115-0.056 0.218 0.01 0.31 0.197v0c0.053 0.109 0.08 0.234 0.082 0.375 0.008 0.138-0.019 0.245-0.08 0.32v0c-1.007 0.252-1.988 0.596-2.943 1.031v0l1.336 2.716 2.503-1.221c0.062 0.082 0.117 0.171 0.164 0.268v0c0.05 0.103 0.085 0.198 0.106 0.286v0l-2.503 1.221 1.102 2.235c0.254 0.52 0.495 0.885 0.725 1.095v0c-0.098 0.228-0.251 0.392-0.456 0.492v0c-0.169 0.083-0.326 0.099-0.47 0.049-0.147-0.041-0.26-0.142-0.34-0.305v0l-2.686-5.505c-0.227-0.466-0.46-0.82-0.698-1.063v0c0.056-0.147 0.135-0.268 0.239-0.363 0.097-0.092 0.252-0.19 0.463-0.293v0z" fill="#ffffff" data-fill-palette-color="accent"></path><path d="M61.115 57.756c0.147 0.026 0.27 0.089 0.368 0.19v0c0.127 0.13 0.172 0.297 0.137 0.501-0.031 0.209-0.133 0.398-0.306 0.567v0c-0.255 0.249-0.535 0.348-0.839 0.297-0.304-0.061-0.639-0.279-1.005-0.654v0l-0.134-0.137c0.198 0.549 0.253 1.088 0.166 1.614-0.087 0.527-0.318 0.974-0.694 1.34v0c-0.322 0.315-0.667 0.477-1.033 0.488-0.357 0.01-0.681-0.134-0.972-0.433v0c-0.324-0.332-0.472-0.738-0.442-1.218 0.029-0.48 0.197-0.982 0.503-1.507v0c0.33-0.557 0.736-1.052 1.216-1.484v0l-0.204-0.209c-0.484-0.496-0.918-0.786-1.303-0.872-0.384-0.085-0.754 0.046-1.11 0.394v0c-0.226 0.221-0.367 0.462-0.423 0.722-0.051 0.256 0.039 0.502 0.27 0.739v0c0.122 0.125 0.266 0.215 0.432 0.269 0.171 0.059 0.335 0.054 0.492-0.016v0c0.021 0.214-0.067 0.418-0.264 0.611v0c-0.202 0.197-0.436 0.28-0.702 0.248-0.271-0.027-0.503-0.139-0.695-0.336v0c-0.32-0.327-0.417-0.721-0.293-1.181 0.12-0.465 0.432-0.944 0.937-1.437v0c0.587-0.573 1.161-0.847 1.723-0.822 0.561 0.016 1.147 0.337 1.758 0.963v0l1.579 1.617c0.291 0.298 0.533 0.354 0.726 0.166v0c0.043-0.042 0.077-0.104 0.102-0.185 0.02-0.076 0.023-0.154 0.01-0.235zM58.626 60.637c0.207-0.202 0.341-0.488 0.402-0.858 0.061-0.37 0.038-0.756-0.071-1.157-0.109-0.401-0.303-0.748-0.58-1.041v0c-0.212 0.188-0.419 0.409-0.622 0.663-0.198 0.25-0.344 0.486-0.436 0.708v0c-0.142 0.317-0.205 0.614-0.189 0.89 0.021 0.271 0.132 0.511 0.334 0.717v0c0.174 0.178 0.365 0.283 0.574 0.314 0.199 0.031 0.395-0.048 0.588-0.236z" fill="#ffffff" data-fill-palette-color="accent"></path><path d="M67.13 45.537c0.495 0.228 0.911 0.361 1.25 0.399v0c0.073 0.226 0.062 0.443-0.034 0.651v0c-0.076 0.165-0.186 0.274-0.328 0.326-0.14 0.062-0.292 0.054-0.457-0.021v0l-2.822-1.302c-0.592-0.273-1.075-0.415-1.449-0.424-0.367-0.007-0.634 0.17-0.8 0.531v0c-0.101 0.22-0.113 0.47-0.035 0.75 0.078 0.28 0.263 0.57 0.555 0.867 0.286 0.295 0.697 0.57 1.231 0.824v0l1.393 0.643c0.495 0.228 0.911 0.361 1.249 0.398v0c0.071 0.233 0.061 0.447-0.029 0.642v0c-0.073 0.159-0.181 0.265-0.324 0.317-0.137 0.055-0.288 0.045-0.453-0.031v0l-2.826-1.292c-0.623-0.287-1.114-0.429-1.471-0.424-0.361 0.011-0.626 0.2-0.795 0.567v0c-0.104 0.226-0.113 0.478-0.026 0.755 0.084 0.283 0.287 0.573 0.61 0.87 0.328 0.3 0.783 0.583 1.363 0.851v0c0.861 0.397 1.429 0.652 1.703 0.764 0.274 0.112 0.534 0.176 0.778 0.192v0c0.076 0.205 0.061 0.421-0.043 0.647v0c-0.076 0.165-0.189 0.272-0.337 0.322-0.152 0.056-0.316 0.043-0.494-0.039v0l-3.788-1.736c-0.183-0.085-0.338-0.119-0.463-0.103-0.12 0.019-0.206 0.086-0.26 0.202v0c-0.031 0.067-0.045 0.138-0.043 0.214 0.008 0.078 0.041 0.145 0.096 0.2v0c-0.147 0.029-0.284 0.013-0.412-0.046v0c-0.171-0.079-0.282-0.208-0.333-0.386-0.048-0.185-0.025-0.378 0.068-0.58v0c0.138-0.299 0.349-0.483 0.633-0.553 0.29-0.066 0.636-0.006 1.039 0.179v0l0.11 0.051c-0.363-0.338-0.596-0.708-0.699-1.111-0.106-0.412-0.065-0.823 0.124-1.232v0c0.386-0.837 1.063-1.139 2.03-0.908v0c-0.353-0.326-0.576-0.695-0.666-1.108-0.1-0.409-0.056-0.818 0.133-1.227v0c0.496-1.075 1.477-1.274 2.942-0.598v0z" fill="#ffffff" data-fill-palette-color="accent"></path><path d="M0.742 35.816c0-1.765 1.431-3.195 3.195-3.195 1.765 0 3.195 1.431 3.195 3.195 0 1.765-1.431 3.195-3.195 3.195-1.765 0-3.195-1.431-3.195-3.195z" fill="#ffffff" data-fill-palette-color="accent"></path><path d="M63.569 35.816c0-1.765 1.431-3.195 3.196-3.195 1.765 0 3.195 1.431 3.195 3.195 0 1.765-1.431 3.195-3.195 3.195-1.765 0-3.195-1.431-3.196-3.195z" fill="#ffffff" data-fill-palette-color="accent"></path></g><g id="text-1"></g></svg></g></svg></g><g></g></svg></g></svg></g></svg></g><defs></defs></svg><rect width="320" height="360" fill="none" stroke="none" visibility="hidden"></rect></g></svg></g></svg>